<svg xmlns="http://www.w3.org/2000/svg" viewBox="0 0 150.38 151.92">
  <style>
    path {
      fill: #000000;
    }
    @media (prefers-color-scheme: dark) {
      path { fill: #ffffff; }
    }
  </style>

  <path d="m128.08,105.26l20.85-16.38c1.28-1,1.82-2.7,1.19-3.76-.63-1.06-2.37-1.44-3.88-.84l-24.79,9.87c-1.51.61-2.93-.22-3.15-1.83l-1.66-11.76c-.31-2.22-.32-4.46-.03-6.68l1.93-14.52c.22-1.61,1.62-2.43,3.12-1.83l24.57,9.87c1.5.6,3.25.12,3.88-1.06.63-1.19.09-2.98-1.18-3.98h0s-20.85-16.39-20.85-16.39c-1.28-1-1.28-2.64,0-3.65l20.85-16.38c1.28-1,1.82-2.7,1.19-3.76-.63-1.06-2.37-1.44-3.88-.84l-24.79,9.87c-1.51.61-2.93-.22-3.15-1.83l-3.73-26.47c-.23-1.61-1.44-2.93-2.69-2.93s-2.46,1.32-2.68,2.92l-3.73,26.47c-.23,1.61-1.65,2.43-3.15,1.83l-24.38-9.71c-1.51-.6-3.97-.6-5.48,0l-24.38,9.71c-1.51.6-2.93-.22-3.15-1.83l-3.73-26.47c-.23-1.61-1.44-2.92-2.69-2.92s-2.46,1.32-2.69,2.92l-3.73,26.47c-.23,1.61-1.65,2.43-3.15,1.83L4.14,21.35c-1.51-.6-3.25-.22-3.88.84-.62,1.07-.09,2.76,1.18,3.76l20.85,16.38c1.28,1,1.28,2.64,0,3.65L1.45,62.36c-1.28,1-1.81,2.8-1.19,3.98.63,1.19,2.37,1.67,3.88,1.06l24.57-9.87c1.51-.6,2.91.22,3.12,1.83l1.93,14.56c.29,2.22.29,4.46-.03,6.68l-1.65,11.73c-.23,1.61-1.65,2.43-3.15,1.83l-24.79-9.87c-1.51-.6-3.25-.22-3.88.84-.62,1.07-.09,2.76,1.18,3.76l20.85,16.38c1.28,1,1.28,2.65,0,3.65L1.45,125.29c-1.28,1-1.81,2.8-1.19,3.98.63,1.19,2.37,1.67,3.88,1.06l24.57-9.87c1.51-.6,2.91.22,3.12,1.83l3.54,26.7c.21,1.61,1.62,2.92,3.12,2.92s2.91-1.32,3.12-2.92l3.55-26.7c.21-1.61,1.62-2.43,3.12-1.83l24.16,9.7c1.51.61,3.97.61,5.48,0l24.16-9.7c1.5-.6,2.91.22,3.12,1.83l3.55,26.7c.21,1.61,1.62,2.92,3.11,2.92s2.91-1.32,3.12-2.92l3.55-26.7c.22-1.61,1.62-2.43,3.12-1.83l24.57,9.87c1.5.6,3.25.12,3.88-1.06.63-1.19.09-2.98-1.18-3.98h0s-20.85-16.39-20.85-16.39c-1.28-1-1.28-2.64,0-3.65ZM54.47,42.55l18.4-14.49c1.27-1,3.36-1,4.64,0l18.4,14.49c1.28,1,1.27,2.63-.02,3.63h0s-18.36,14.13-18.36,14.13c-1.29.99-3.39.99-4.67,0l-18.37-14.14c-1.28-.99-1.29-2.62-.02-3.62Zm41.42,66.56h0s-18.36,14.13-18.36,14.13c-1.29.99-3.39.99-4.67,0l-18.37-14.13c-1.28-.99-1.29-2.62-.02-3.62l18.4-14.49c1.27-1.01,3.36-1.01,4.64,0l18.4,14.49c1.28,1,1.27,2.63-.02,3.63Zm6.42-14.96l-24.38-9.71c-1.51-.6-3.97-.6-5.48,0l-24.38,9.71c-1.51.6-2.93-.22-3.15-1.83l-1.65-11.76c-.31-2.21-.32-4.46-.03-6.68l1.93-14.53c.21-1.61,1.62-2.43,3.12-1.83l24.16,9.7c1.51.61,3.97.61,5.48,0l24.16-9.7c1.5-.6,2.91.22,3.12,1.83l1.93,14.55c.3,2.22.29,4.47-.03,6.68l-1.65,11.73c-.23,1.61-1.65,2.43-3.15,1.83Z"/>
</svg>
